<svg xmlns="http://www.w3.org/2000/svg" viewBox="0 0 24 24" id="google-drive"><path d="M19.978 22.5H3.713l-3.976-7.727L7.736 1.5h8.566l7.96 13.368-4.284 7.632zm-15.654-1h15.069l3.715-6.618L15.734 2.5H8.301L.883 14.811 4.324 21.5z"></path><path d="M8.019 14.5h15v1h-15z"></path><path d="M.01 14.563h16.017v1H.01z" transform="rotate(-60.053 8.019 15.063)"></path><path d="M11.591.829h1v15.342h-1z" transform="rotate(-32.067 12.09 8.5)"></path><path d="M23.019 15.5h-1a.5.5 0 0 1 0-1h1a.5.5 0 0 1 0 1z"></path></svg>